# xmcd CD database file
#
# Track frame offsets:
#	150
#	8492
#	14815
#	18990
#	24487
#	29677
#	38592
#	42127
#	57642
#	67677
#	80000
#	90250
#	96350
#	102802
#	105810
#	113855
#	123795
#	133735
#	141680
#	149165
#	156552
#
# Disc length: 2619 seconds
#
# Revision: 0
# Processed by: cddbd v1.5.2PL0 Copyright (c) Steve Scherf et al.
# Submitted via: CDex 1.70beta2
#
DISCID=1b0a3915
DTITLE=Oreade - Inside the dragon's lair  - Inside the dragon's lair
DYEAR=1900
DGENRE=New Age
TTITLE0=You Are a Knight Riding in from the Forest
TTITLE1=Opening a Large Wooden Door You Walk into the Palace
TTITLE2=In the Near Distance the Cathedral Stirs
TTITLE3=You Open the Gate into the Garden
TTITLE4=Opening a Heavy Studded Door You Leave
TTITLE5=A Wooden Door Opens Onto the Balcony
TTITLE6=You Continue Your Quest
TTITLE7=An Ever Present Yet Never Seen Cave-Monster
TTITLE8=At the End of the Caves Daylight
TTITLE9=The Lure of an Angelic Voice
TTITLE10=The Spells Gather into an Unearthly Vortex
TTITLE11=At the Edge of the Forest a Church
TTITLE12=A Swamp Chokes the Air
TTITLE13=A Hunter Fires an Arrow to Fell the Beast
TTITLE14=From Out of the Mist You Are Attacked
TTITLE15=The Land Rises Sharply as You Climb Up
TTITLE16=The Dragon Stirs Angrily
TTITLE17=Having Narrowly Escaped the Dragon
TTITLE18=Your Army Charges, Running Fast
TTITLE19=With the Battle Won It Is Time
TTITLE20=Castle Guards Spot the Returning Hero
EXTD=
EXTT0=
EXTT1=
EXTT2=
EXTT3=
EXTT4=
EXTT5=
EXTT6=
EXTT7=
EXTT8=
EXTT9=
EXTT10=
EXTT11=
EXTT12=
EXTT13=
EXTT14=
EXTT15=
EXTT16=
EXTT17=
EXTT18=
EXTT19=
EXTT20=
PLAYORDER=
